# xmcd
#
# Track frame offsets:
#	150
#	30942
#	50541
#	71987
#	93760
#	113199
#	135097
#	136598
#	159278
#	185684
#	212387
#	232474
#
# Disc length: 3165 seconds
#
# Revision: 1
# Processed by: cddbd v1.5.2PL0 Copyright (c) Steve Scherf et al.
# Submitted via: audiograbber 1.83.01
#
DISCID=9a0c5b0c
DTITLE=Wumpscut - Bunkertor 7
DYEAR=1995
DGENRE=Industrial
TTITLE0=Open Gate
TTITLE1=Tornskin
TTITLE2=Dying Culture (Second Movement)
TTITLE3=Bunkertor 7 (German Texture)
TTITLE4=Mortal Highway
TTITLE5=Corrorded Breed
TTITLE6=Die In Winter
TTITLE7=Bunkertor 7 (Reprised)
TTITLE8=Capital Punishment
TTITLE9=Thorns
TTITLE10=Tell Me Why
TTITLE11=Close Gate
EXTD=
EXTT0=
EXTT1=
EXTT2=
EXTT3=
EXTT4=
EXTT5=
EXTT6=
EXTT7=
EXTT8=
EXTT9=
EXTT10=
EXTT11=
PLAYORDER=
